<svg width="210" height="140" viewBox="0 0 210 140" fill="none" xmlns="http://www.w3.org/2000/svg">
<path d="M66.354 54.1616H145.258L146.232 54.4399L146.51 55.8315V61.3979L146.371 62.3721L145.954 62.7896L145.258 62.9287L137.882 63.0679L137.465 64.3203L135.934 68.2168L134.682 71L134.821 71.835L136.908 74.0615L138.021 75.0356L139.135 76.1489L139.97 77.2622L139.831 78.0972L137.604 80.4629L129.115 88.9517L128.419 89.3691L127.584 89.0908L126.054 87.8384L124.523 86.3076L123.549 85.1943L122.296 83.9419L121.183 84.0811L117.982 85.6118L113.947 87.1426L113.668 87.2817L113.529 94.2397L113.39 95.4922L112.973 95.7705L108.798 95.9097H100.727L96.2734 95.7705L95.9951 94.7964V87.1426L94.6035 86.7251L91.542 85.6118L88.7588 84.3594L87.9238 83.9419H87.228L85.8364 85.3335L84.8623 86.4468L82.3574 88.9517L81.6616 89.5083L80.9658 89.23L79.5742 88.1167L73.1729 81.7153V81.437L72.6162 81.1587L71.3638 79.7671L70.1113 78.5146L69.5547 77.5405L69.833 76.8447L71.5029 75.1748L72.4771 74.0615L74.8428 71.6958L74.5645 70.4434L72.8945 66.5469L71.7812 63.6245L71.6421 62.9287H64.2666L63.4316 62.6504L63.0142 61.6763L62.875 59.4497V56.1099L63.0142 54.5791L63.4316 54.3008L66.354 54.1616ZM65.6582 57.2231V60.2847H71.0854L73.1729 60.4238L73.5903 60.8413L74.4253 63.0679L75.3994 65.9902L76.6519 68.9126L77.7651 70.8608L78.0435 71.9741L77.4868 72.8091L73.7295 76.5664L72.8945 77.2622L73.7295 78.2363L75.2603 79.9062L76.2344 80.8804H76.5127L76.791 81.437L81.2441 85.8901L81.8008 85.751L83.6099 83.9419L84.584 82.8286L86.3931 81.1587L87.228 80.8804L89.4546 81.9937L92.0986 83.2461L94.7427 84.2202L97.9434 85.1943L98.6392 85.751L98.7783 93.2656H110.607L110.746 93.1265L110.885 87.0034L111.024 85.6118L111.581 85.1943L115.756 83.9419L118.261 82.8286L121.74 81.0195L122.436 80.8804L123.41 81.437L125.497 83.3853L128.002 85.8901L128.698 85.6118L130.229 83.9419L131.62 82.5503L132.594 81.437L136.212 77.8188L136.352 77.123L131.759 72.5308L131.481 71.9741L131.62 71.1392L133.151 68.356L134.542 64.877L135.795 61.2588L136.212 60.563L136.63 60.4238L143.588 60.2847L143.866 60.1455V57.3623L135.238 57.2231H126.471L125.915 57.3623L124.801 62.3721L124.105 64.7378L122.853 67.521L121.74 69.3301L120.487 70.8608L119.235 72.2524L117.426 73.7832L115.338 75.0356L112.694 76.2881L109.772 77.2622L107.824 77.6797L105.458 77.958H103.51L100.17 77.5405L97.8042 76.8447L95.5776 75.8706L93.7686 74.8965L92.0986 73.7832L90.5679 72.5308L88.8979 70.8608L87.3672 68.7734L86.1147 66.5469L85.1406 64.042L84.3057 60.7021L84.0273 58.8931L83.8882 57.2231H65.6582ZM90.5679 57.2231L86.9497 57.3623L86.8105 57.5015L86.9497 59.4497L87.5063 62.0938L88.4805 65.0161L89.4546 66.8252L90.4287 68.0776L92.0986 70.0259L93.0728 71L95.021 72.3916L98.2217 73.9224L100.448 74.6182L102.536 75.0356L103.649 75.1748H106.293L109.354 74.6182L112.138 73.644L114.643 72.2524L116.869 70.5825L118.539 68.9126L120.07 66.686L121.183 64.4595L121.879 62.6504L122.575 59.4497L122.853 57.2231H90.5679Z" fill="#1D4ED8"/>
<path d="M100.866 0.445801H113.529L115.756 0.724121L115.895 5.45557V7.68213L117.287 8.09961L119.513 9.07373L121.879 10.3262L124.384 11.8569L126.75 13.5269L128.28 14.7793L130.089 16.4492L131.063 17.4233L132.038 18.5366L133.708 20.624L135.238 22.9897L136.769 25.6338L138.021 28.5562L138.996 31.4785L139.691 34.4009L140.387 38.9932L140.526 40.5239V42.1938H143.588L145.536 42.333L146.232 42.6113L146.371 43.0288L146.51 45.3945V50.9609L146.232 51.2393L144.84 51.3784H65.3799L63.5708 51.2393L63.1533 50.9609L63.0142 50.5435L62.875 48.5952V43.168L63.2925 42.4722L63.71 42.333L66.2148 42.1938H68.8589V39.2715L69.1372 36.3491L69.833 33.0093L70.668 30.2261L71.5029 28.1387L72.8945 25.2163L74.5645 22.4331L76.5127 19.7891L78.3218 17.5625L81.3833 14.501L83.6099 12.8311L86.2539 11.1611L89.1763 9.49121L91.2637 8.51709L93.4902 7.68213L93.7686 0.863281L94.3252 0.584961L100.866 0.445801ZM108.798 3.08984L106.154 3.229V17.145L103.371 17.0059V3.229H96.4126L96.2734 14.501L96.1343 22.2939L95.7168 22.4331H94.0469L93.7686 22.0156V10.6045L93.4902 10.4653L89.0371 12.6919L86.2539 14.3618L84.3057 15.7534L82.3574 17.4233L80.9658 18.6758L79.7134 20.0674L78.3218 21.8765L76.9302 23.8247L75.6777 25.9121L74.5645 28.1387L73.4512 30.7827L72.7554 32.8701L71.9204 36.6274L71.6421 38.5757L71.5029 41.3589L71.6421 42.1938L74.2861 42.4722L74.147 44.0029L73.7295 44.5596L65.3799 44.6987V48.7344L138.717 48.8735L144.005 48.7344V44.6987L137.882 44.5596H135.377V42.6113L137.743 42.1938L137.882 42.0547L137.743 39.689L136.769 33.9834L135.795 30.6436L134.96 28.417L133.708 25.7729L131.898 22.8506L130.507 21.0415L128.837 19.0933L127.028 17.2842L125.08 15.7534L123.131 14.3618L121.044 13.1094L116.034 10.6045H115.895V22.4331H113.808L113.39 22.2939L113.251 21.8765L113.112 3.64648L112.833 3.08984H108.798Z" fill="#1D4ED8"/>
<path d="M11.5249 112.748H15.5605L17.9263 113.166L19.8745 114.14L21.8228 115.531L23.4927 117.062L24.7451 118.732L25.7192 120.68L26.415 122.768L26.6934 124.02L26.8325 126.107L26.5542 128.334L25.9976 130.421L25.3018 131.952L24.3276 133.622L23.0752 135.014L21.5444 136.405L19.5962 137.658L18.0654 138.354L16.2563 138.771L13.6123 139.049L11.1074 138.91L8.7417 138.354L6.79346 137.379L4.84521 135.849L3.17529 134.179L2.20117 132.787L1.08789 130.561L0.39209 128.195L0.25293 127.36V124.577L0.80957 122.072L1.64453 119.984L2.75781 118.036L4.28857 116.366L5.68018 115.114L8.0459 113.583L9.71582 113.026L11.5249 112.748ZM12.7773 118.871L11.3857 119.149L9.71582 119.984L8.60254 120.958L7.76758 122.35L7.21094 123.603L6.93262 124.855V127.221L7.62842 129.308L8.7417 130.839L9.99414 131.813L11.6641 132.648L13.0557 132.926L14.8647 132.787L16.5347 132.091L18.0654 130.978L19.0396 130.004L19.8745 128.334L20.1528 126.247L20.0137 124.438L19.5962 122.907L18.7612 121.376L17.6479 120.263L15.978 119.289L15.0039 119.01L12.7773 118.871Z" fill="#181818"/>
<path d="M31.2856 110.243H35.8779L36.8521 110.521L36.9912 110.8V118.454L38.2437 117.758L39.3569 117.062L40.7485 116.645L42.6968 116.505L44.9233 116.923L46.8716 117.897L48.5415 119.428L49.5156 120.958L50.0723 122.35L50.4897 124.716L50.6289 129.169V136.405L50.4897 138.214L50.2114 138.493L49.5156 138.632H44.7842L44.3667 138.493L44.0884 137.519L43.9492 125.551L43.6709 124.438L43.1143 123.603L42.2793 122.907L41.0269 122.489L39.4961 122.628L38.3828 123.324L37.5479 124.438L37.1304 125.69L36.9912 138.354L36.7129 138.493L34.4863 138.632H30.8682L30.5898 138.354L30.4507 137.797L30.3115 135.709V112.052L30.4507 110.661L30.729 110.382L31.2856 110.243Z" fill="#181818"/>
<path d="M104.345 116.505H107.128L109.494 116.923L111.72 118.036L112.833 118.871L113.529 119.428L114.782 121.098L115.895 123.324L116.452 124.994L116.591 125.829V128.195L116.173 129.308L115.338 129.726L101.283 129.865L102.396 132.091L103.51 133.065L104.901 133.622H106.989L108.798 133.205L110.05 132.509L110.885 131.813L111.72 131.674L112.694 132.23L114.503 134.179L114.782 134.735L114.643 135.57L113.251 136.962L111.303 138.075L109.215 138.771L107.406 139.049H105.319L103.371 138.632L101.144 137.797L99.1958 136.544L97.8042 135.292L96.6909 133.761L95.7168 131.813L95.021 129.169L94.8818 126.942L95.1602 125.133L95.9951 122.628L97.1084 120.68L98.6392 119.01L100.448 117.758L102.118 116.923L104.345 116.505ZM105.041 121.654L103.927 122.072L102.814 123.046L101.84 124.02L101.701 124.716L101.979 124.855H110.329L110.05 124.02L108.38 122.35L107.267 121.793L106.85 121.654H105.041Z" fill="#181818"/>
<path d="M130.785 116.505H133.568L135.795 117.062L137.882 118.314L138.996 119.428L140.248 121.376L140.944 123.046L141.083 123.881V138.493L139.97 138.632H135.099L134.821 138.075L134.682 137.101L134.542 125.551L133.847 124.159L133.012 123.185L131.898 122.628L130.507 122.489L129.115 122.907L128.28 123.603L127.167 125.272L127.028 126.386L126.889 138.214L126.471 138.493L124.384 138.632H121.183L120.487 138.354L120.209 136.823V118.454L120.348 117.201L121.044 116.784H124.94L125.358 117.201L125.775 118.314L126.054 119.845L126.889 119.149L127.863 118.036L129.254 117.062L130.785 116.505Z" fill="#181818"/>
<path d="M62.3184 116.227L64.4058 116.366L66.4932 116.923L68.0239 117.758L69.5547 119.01L70.1113 119.706V120.402L68.8589 121.515L67.8848 122.628L67.3281 123.185L66.4932 123.463L65.6582 122.628V122.35L64.4058 121.933L62.5967 121.793L61.6226 122.072L61.2051 122.211L61.0659 123.324L62.1792 123.881L65.519 124.855L67.7456 125.968L69.2764 127.082L70.3896 128.473L70.9463 130.004L71.0854 130.561V133.205L70.668 134.596L69.5547 136.266L68.5806 137.379L66.6323 138.354L65.1016 138.771L63.2925 139.049H60.5093L58.1436 138.493L56.752 137.936L55.3604 136.962L54.2471 135.849L53.8296 134.875L53.9688 134.04L56.752 131.256L57.5869 131.535L58.7002 132.509L60.5093 133.344L61.0659 133.483H62.7358L64.1274 132.787L64.5449 132.23L64.2666 131.535L64.1274 131.117L63.5708 130.839L61.4834 130.143L59.8135 129.726L57.5869 128.612L56.3345 127.499L55.4995 126.107L54.8037 124.298L54.6646 123.603V121.933L55.082 120.263L56.0562 118.732L57.1694 117.758L58.8394 116.923L61.0659 116.366L62.3184 116.227Z" fill="#181818"/>
<path d="M199.669 116.505H203.009L205.514 117.062L207.741 118.036L208.993 118.871L209.132 119.01L208.993 119.984L207.602 122.628L206.488 124.02L205.375 123.463L203.983 122.628L202.453 122.211H201.479L199.669 122.768L198.417 123.742L197.86 124.438L197.165 125.829L196.886 126.942V128.751L197.304 130.143L198.139 131.535L199.252 132.509L200.922 133.065H202.87L204.54 132.37L205.514 131.813L206.488 131.952L207.602 133.065L208.854 134.875L209.271 135.849L208.715 136.684L207.323 137.797L205.514 138.632L203.705 139.049H200.644L198.139 138.632L196.051 137.797L194.242 136.405L192.851 134.875L191.737 133.065L190.902 131.256L190.485 129.447V126.107L191.042 123.881L192.155 121.654L193.129 120.402L193.686 119.706L195.216 118.454L196.747 117.479L198.417 116.784L199.669 116.505Z" fill="#181818"/>
<path d="M83.8882 116.505H85.9756L88.6196 116.923L90.9854 117.758L92.7944 118.871L92.9336 119.01L92.7944 119.984L90.8462 123.324L90.2896 124.02L89.5938 123.742L88.063 122.768L87.0889 122.35L86.3931 122.211H85.1406L83.4707 122.768L82.2183 123.603L81.2441 124.994L80.6875 126.803L80.5483 128.056L80.8267 129.726L81.6616 131.396L82.7749 132.37L84.3057 132.926L85.5581 133.205L86.9497 133.065L89.1763 131.952L90.0112 131.813L90.8462 132.509L92.5161 134.735L93.0728 135.849L92.6553 136.544L91.2637 137.658L89.1763 138.632L87.228 139.049H84.584L81.9399 138.632L80.1309 137.936L78.6001 136.823L77.2085 135.57L75.8169 133.622L74.7036 131.256L74.2861 129.308V126.107L74.8428 124.02L75.5386 122.35L76.5127 120.819L78.6001 118.732L80.5483 117.479L82.2183 116.784L83.8882 116.505Z" fill="#181818"/>
<path d="M152.494 110.382L153.051 110.661L153.329 111.356L153.468 112.748L153.607 117.479L156.53 117.619L157.226 117.897L157.504 118.175L157.643 118.732V121.098L157.504 122.628L157.226 123.185L156.947 123.324L153.607 123.463L153.468 138.075L153.051 138.493L151.938 138.632H147.345L146.928 138.214L146.649 136.544L146.51 123.881L146.371 123.603L144.562 123.046L144.145 122.489L144.005 121.933V118.454L144.284 117.897L146.371 117.34L146.51 117.201L146.789 112.748L147.206 112.331L151.52 110.661L152.494 110.382Z" fill="#181818"/>
<path d="M170.585 116.366H172.672L174.621 117.062L176.708 118.314L177.682 119.149L177.821 119.706L176.708 121.793L175.177 124.02L174.342 123.881L172.394 122.489L171.698 122.211H170.167L168.776 122.768L167.384 124.02L167.106 124.855L166.967 134.735L166.828 138.354L166.688 138.493L165.158 138.632H161.4L160.565 138.354L160.287 137.24V117.479L160.426 117.062L161.4 116.784L163.766 116.645L164.879 116.923L165.436 117.619L166.132 119.428H166.688L168.498 117.619L169.889 116.645L170.585 116.366Z" fill="#181818"/>
<path d="M181.439 116.645H184.779L186.588 116.923L186.867 117.34L187.006 118.454V137.936L186.449 138.493L184.918 138.632H181.022L180.604 138.493L180.326 137.936L180.187 136.405V118.454L180.465 117.062L181.439 116.645Z" fill="#181818"/>
<path d="M84.3057 42.333H124.384L125.358 42.4722L125.497 43.168L125.358 44.8379L125.219 44.9771L118.122 45.1162H85.5581L84.0273 44.9771V43.7246L84.3057 42.333Z" fill="#1D4ED8"/>
<path d="M180.604 108.017H185.893L186.867 108.295L187.006 108.434V112.47L186.867 113.722L186.032 114L185.058 114.14H181.161L180.604 114L180.326 113.166L180.187 110.8L180.326 108.434L180.604 108.017Z" fill="#181818"/>
</svg>
